<?xml version="1.0" standalone="no"?>
<!DOCTYPE svg PUBLIC "-//W3C//DTD SVG 20010904//EN" "http://www.w3.org/TR/2001/REC-SVG-20010904/DTD/svg10.dtd">
<!-- Created using Krita: https://krita.org -->
<svg xmlns="http://www.w3.org/2000/svg" 
    xmlns:xlink="http://www.w3.org/1999/xlink"
    xmlns:krita="http://krita.org/namespaces/svg/krita"
    xmlns:sodipodi="http://sodipodi.sourceforge.net/DTD/sodipodi-0.dtd"
    width="2949.12pt"
    height="2949.12pt"
    viewBox="0 0 2949.12 2949.12">
<defs/>
<path id="shape0" transform="translate(584.279994649206, 303.74999721828)" fill="none" stroke="#808080" stroke-width="72" stroke-linecap="round" stroke-linejoin="miter" stroke-miterlimit="2.0016" krita:marker-fill-method="auto" d="M866.52 2351.61C838.2 2220.57 826.44 2113.77 831.24 2031.21C836.04 1948.65 844.56 1901.73 856.8 1890.45C820.08 1922.37 784.92 1945.77 751.32 1960.65C717.72 1975.53 669.96 1989.45 608.04 2002.41C599.4 1952.01 598.2 1913.85 604.44 1887.93C610.68 1862.01 622.68 1824.09 640.44 1774.17C605.4 1766.01 563.4 1772.73 514.44 1794.33C465.48 1815.93 430.68 1832.73 410.04 1844.73C404.76 1783.29 413.16 1718.97 435.24 1651.77C457.32 1584.57 472.98 1543.11 482.22 1527.39C337.86 1445.67 233.28 1359.09 168.48 1267.65C103.68 1176.21 47.52 1076.85 0 969.57C14.4 940.05 48.24 905.13 101.52 864.81C154.8 824.49 200.16 796.41 237.6 780.57C194.4 696.33 167.4 633.33 156.6 591.57C145.8 549.81 136.8 484.29 129.6 395.01C182.88 333.81 246.24 285.93 319.68 251.37C393.12 216.81 439.56 196.29 459 189.81C457.56 168.21 459 147.33 463.32 127.17C467.64 107.01 471.96 88.29 476.28 71.01C528.84 50.13 589.68 32.13 658.8 17.01C727.92 1.89 803.52 -3.15 885.6 1.89L917.28 70.29C963.6 51.33 1025.16 38.49 1101.96 31.77C1178.76 25.05 1244.28 34.17 1298.52 59.13C1404.6 210.81 1471.56 356.25 1499.4 495.45C1541.16 704.25 1561.32 861.21 1549.8 987.93C1542.12 1072.41 1526.28 1175.37 1502.28 1296.81C1540.2 1315.53 1569.48 1331.61 1590.12 1345.05C1610.76 1358.49 1633.56 1376.49 1658.52 1399.05L1602.36 1485.45C1632.12 1518.09 1653.72 1546.41 1667.16 1570.41C1680.6 1594.41 1696.2 1625.37 1713.96 1663.29L1621.8 1706.49C1649.04 1834.41 1673.28 1927.35 1694.52 1985.31C1715.76 2043.27 1737.29 2097.85 1759.12 2149.06" sodipodi:nodetypes="czczczczczczczczczczczcczczzczcczcczc"/><path id="shape1" transform="translate(732.23997147181, 1226.87995220056)" fill="none" stroke="#808080" stroke-width="72" stroke-linecap="round" stroke-linejoin="miter" stroke-miterlimit="2.0016" krita:marker-fill-method="auto" d="M0 130.68C0.72 108.36 12.24 85.14 34.56 61.02C56.88 36.9 77.94 16.56 97.74 0C154.62 28.8 197.64 59.76 226.8 92.88C255.96 126 284.04 160.74 311.04 197.1C303.12 220.14 289.98 243.54 271.62 267.3C253.26 291.06 236.88 309.06 222.48 321.3C171 293.94 131.4 267.48 103.68 241.92C62.1 203.58 62.1 203.58 0 130.68Z" sodipodi:nodetypes="czczczccc"/><path id="shape2" transform="translate(1638.43814820651, 501.089965543815)" fill="none" stroke="#808080" stroke-width="72" stroke-linecap="round" stroke-linejoin="miter" stroke-miterlimit="2.0016" krita:marker-fill-method="auto" d="M98.9217 479.55C50.9217 403.23 22.1217 339.39 12.5217 288.03C2.92174 236.67 -1.15826 156.75 0.281739 48.27C33.4017 25.71 66.7617 11.31 100.362 5.07C133.962 -1.17 169.482 -1.65 206.922 3.63C244.362 84.27 265.242 156.51 269.562 220.35C273.882 284.19 274.602 347.55 271.722 410.43C246.762 431.55 220.122 446.91 191.802 456.51C149.322 470.91 149.322 470.91 98.9217 479.55Z" sodipodi:nodetypes="czczczccc"/><path id="shape3" transform="translate(1210.62852426231, 436.319983000912)" fill="none" stroke="#808080" stroke-width="72" stroke-linecap="round" stroke-linejoin="miter" stroke-miterlimit="2.0016" krita:marker-fill-method="auto" d="M137.751 517.86C74.0314 432.54 34.9714 360.36 20.5714 301.32C6.17143 242.28 -0.668571 163.08 0.0514286 63.72C17.3314 47.88 43.6114 33.48 78.8914 20.52C114.171 7.56 140.811 0.72 158.811 0C225.051 73.44 268.611 144.72 289.491 213.84C310.371 282.96 324.771 351.36 332.691 419.04C306.771 452.88 275.811 476.64 239.811 490.32C185.811 510.84 185.811 510.84 137.751 517.86Z" sodipodi:nodetypes="czczczccc"/><path id="shape4" transform="translate(876.959991968963, 683.999993736055)" fill="none" stroke="#808080" stroke-width="72" stroke-linecap="round" stroke-linejoin="miter" stroke-miterlimit="2.0016" krita:marker-fill-method="auto" d="M148.32 501.12C77.28 425.28 35.04 358.08 21.6 299.52C8.16 240.96 0.96 170.4 0 87.84C24 64.8 48 46.56 72 33.12C96 19.68 121.44 8.64 148.32 0C215.52 67.2 259.68 138.24 280.8 213.12C301.92 288 313.44 357.12 315.36 420.48C295.2 438.72 270.72 455.04 241.92 469.44C198.72 491.04 198.72 491.04 148.32 501.12Z" sodipodi:nodetypes="czczczccc"/><ellipse id="shape5" transform="matrix(0.95207626109099 -0.305860741297453 0.305860741297453 0.95207626109099 1104.17101764806 1294.7463570064)" rx="412.598437354935" ry="256.802318539739" cx="412.598437354935" cy="256.802318539739" fill="none" stroke="#808080" stroke-width="72" stroke-linecap="round" stroke-linejoin="miter" stroke-miterlimit="2.0016" krita:marker-fill-method="auto"/>
</svg>
